<svg width="297" height="42" viewBox="0 0 297 42" fill="none" xmlns="http://www.w3.org/2000/svg">
<path fill-rule="evenodd" clip-rule="evenodd" d="M14.6069 39.9999C22.674 39.9999 29.2138 33.3913 29.2138 25.2393C29.2138 17.0872 22.674 10.4786 14.6069 10.4786C6.53972 10.4786 0 17.0872 0 25.2393C0 33.3913 6.53972 39.9999 14.6069 39.9999ZM14.6069 31.8508C18.0885 31.8508 20.9109 28.8908 20.9109 25.2393C20.9109 21.5879 18.0885 18.6278 14.6069 18.6278C11.1253 18.6278 8.30288 21.5879 8.30288 25.2393C8.30288 28.8908 11.1253 31.8508 14.6069 31.8508Z" fill="#1C1C1F"/>
<path d="M14.7075 10.1844C6.66218 10.1844 0.202087 16.4826 0.202087 24.6388C0.202087 32.7949 6.66218 39.0931 14.7075 39.0931C22.7528 39.0931 29.2129 32.7949 29.2129 24.6388C29.2215 16.4741 22.7613 10.1844 14.7075 10.1844ZM14.7075 31.0904C11.1451 31.0904 8.40931 28.5165 8.40931 24.6302C8.40931 20.7439 11.1451 18.1701 14.7075 18.1701C18.2699 18.1701 21.0057 20.7439 21.0057 24.6302C21.0057 28.5165 18.2699 31.0904 14.7075 31.0904Z" fill="#1C1C1F"/>
<path d="M8.32404 0L3.91785 7.5084C7.59108 7.5084 12.5257 7.5084 16.1989 7.5084C17.6392 7.5084 19.0881 7.5084 20.5284 7.5084L16.037 0H8.32404Z" fill="#F7B40D"/>
<path d="M25.9659 7.57656L21.5256 0H17.5541L22.0881 7.57656H25.9659Z" fill="#ED0394"/>
<path fill-rule="evenodd" clip-rule="evenodd" d="M14.6069 41.9999C22.674 41.9999 29.2138 35.3913 29.2138 27.2393C29.2138 19.0872 22.674 12.4786 14.6069 12.4786C6.53972 12.4786 0 19.0872 0 27.2393C0 35.3913 6.53972 41.9999 14.6069 41.9999ZM14.6069 33.8508C18.0885 33.8508 20.9109 30.8908 20.9109 27.2393C20.9109 23.5879 18.0885 20.6278 14.6069 20.6278C11.1253 20.6278 8.30288 23.5879 8.30288 27.2393C8.30288 30.8908 11.1253 33.8508 14.6069 33.8508Z" fill="#1C1C1F"/>
<path d="M14.7075 12.1844C6.66218 12.1844 0.202087 18.4826 0.202087 26.6388C0.202087 34.7949 6.66218 41.0931 14.7075 41.0931C22.7528 41.0931 29.2129 34.7949 29.2129 26.6388C29.2215 18.4741 22.7613 12.1844 14.7075 12.1844ZM14.7075 33.0904C11.1451 33.0904 8.40931 30.5165 8.40931 26.6302C8.40931 22.7439 11.1451 20.1701 14.7075 20.1701C18.2699 20.1701 21.0057 22.7439 21.0057 26.6302C21.0057 30.5165 18.2699 33.0904 14.7075 33.0904Z" fill="#1C1C1F"/>
<path d="M8.32404 2L3.91785 9.5084C7.59108 9.5084 12.5257 9.5084 16.1989 9.5084C17.6392 9.5084 19.0881 9.5084 20.5284 9.5084L16.037 2H8.32404Z" fill="#F7B40D"/>
<path d="M25.9659 9.57656L21.5256 2H17.5541L22.0881 9.57656H25.9659Z" fill="#ED0394"/>
<path d="M74.886 16.4H71.664L68.01 25.382L64.338 16.4H60.972V29H63.402V20.306L66.93 29H68.928L72.456 20.306V29H74.886V16.4Z" fill="#1C1C1F"/>
<path d="M87.3755 15.572H90.0575L87.4295 12.8H84.8735L82.2455 15.572H84.9275L86.1515 14.33L87.3755 15.572ZM86.1515 16.22C82.4075 16.22 79.5275 19.046 79.5275 22.7C79.5275 26.354 82.4075 29.18 86.1515 29.18C89.8955 29.18 92.7755 26.354 92.7755 22.7C92.7755 19.046 89.8955 16.22 86.1515 16.22ZM86.1515 26.822C83.9195 26.822 82.1915 25.022 82.1915 22.7C82.1915 20.378 83.9195 18.578 86.1515 18.578C88.4015 18.578 90.1115 20.378 90.1115 22.7C90.1115 25.022 88.4015 26.822 86.1515 26.822Z" fill="#1C1C1F"/>
<path d="M104.452 24.212C106.216 23.672 107.278 22.25 107.278 20.432C107.278 18.128 105.532 16.4 102.832 16.4H97.4142V29H99.9883V24.446H101.554L104.56 29H107.62L104.452 24.212ZM102.832 18.686C103.912 18.686 104.632 19.424 104.632 20.432C104.632 21.422 103.912 22.16 102.832 22.16H99.9883V18.686H102.832Z" fill="#1C1C1F"/>
<path d="M120.464 29V26.714H114.65V23.834H120.284V21.566H114.65V18.686H120.464V16.4H112.076V29H120.464Z" fill="#1C1C1F"/>
<path d="M135.986 32.6V12.8H133.7V32.6H135.986Z" fill="#1C1C1F"/>
<path d="M155.087 29V18.686H158.957V16.4H148.661V18.686H152.513V29H155.087Z" fill="#1C1C1F"/>
<path d="M173.821 29L168.709 16.4H165.865L160.753 29H163.363L164.443 26.264H169.987L171.067 29H173.821ZM167.215 19.262L169.087 23.978H165.343L167.215 19.262Z" fill="#1C1C1F"/>
<path d="M186.32 29V26.714H180.506V16.4H177.932V29H186.32Z" fill="#1C1C1F"/>
<path d="M199.101 29V26.714H193.287V23.834H198.921V21.566H193.287V18.686H199.101V16.4H190.713V29H199.101Z" fill="#1C1C1F"/>
<path d="M212.574 24.734L206.382 16.4H203.88V29H206.454V20.684L212.646 29H215.148V16.4H212.574V24.734Z" fill="#1C1C1F"/>
<path d="M225.793 29V18.686H229.663V16.4H219.367V18.686H223.219V29H225.793Z" fill="#1C1C1F"/>
<path d="M247.962 29V18.686H251.832V16.4H241.536V18.686H245.388V29H247.962Z" fill="#1C1C1F"/>
<path d="M264.428 29V26.714H258.614V23.834H264.248V21.566H258.614V18.686H264.428V16.4H256.04V29H264.428Z" fill="#1C1C1F"/>
<path d="M268.777 22.7C268.777 26.354 271.657 29.18 275.401 29.18C278.335 29.18 280.441 27.416 281.287 25.526L278.911 24.608C278.317 25.85 277.039 26.822 275.401 26.822C273.169 26.822 271.441 25.022 271.441 22.7C271.441 20.378 273.169 18.578 275.401 18.578C277.039 18.578 278.317 19.55 278.911 20.792L281.287 19.874C280.441 17.984 278.335 16.22 275.401 16.22C271.657 16.22 268.777 19.046 268.777 22.7Z" fill="#1C1C1F"/>
<path d="M288.5 29V23.834H294.332V29H296.906V16.4H294.332V21.566H288.5V16.4H285.926V29H288.5Z" fill="#1C1C1F"/>
</svg>
